<svg id="Logo" xmlns="http://www.w3.org/2000/svg" xmlns:xlink="http://www.w3.org/1999/xlink" viewBox="0 0 1383.32 805.04"><defs><clipPath id="clip-path" transform="translate(-24.23 349.5)"><path id="Symbol" d="M1149.22-108.34h0l-9.5,30.8c-3,4-8.36,4-8.36,4l14-51.79L1131.54-172l-8.72-7.31c3.51,26.8,5.7,54.54,5.7,54.54l-17.66,38.29L1075.25-50l-4.85,27.51-9.6,5.5-9.59-5.5L1046.35-50l-35.61-36.5-17.65-38.29s2.18-27.74,5.7-54.54L990.06-172l-13.84,46.76,14,51.79s-5.39,0-8.36-4l-9.49-30.8h0s-1.29,14-5.75,24.65c-.3.7-.61,1.4-.93,2.07,0,0,.82,1.19,2.12,3.3,4.64,7.56,15.44,26.94,17,46.23h8.09l6.34,9.84s-.07.25-.2.67c-.62,1.93-2.59,7.6-5.34,10.44l-.36.35a8.32,8.32,0,0,1-.76.6l-.38.23,9.53,26.53,3.83,1.58,4.68,17.73,3.92,1.48,1,4.48s2,1.65,5.18,4.18l1.34,1c1.16.92,2.44,1.92,3.81,3,4.38,3.39,9.67,7.37,14.87,11l1,.68a101.52,101.52,0,0,0,14.84,8.88l.69.29a14.23,14.23,0,0,0,3,.91,5.5,5.5,0,0,0,.94.09,5.41,5.41,0,0,0,.94-.09,14.48,14.48,0,0,0,3-.91l.68-.29a101,101,0,0,0,14.84-8.88l1-.68c5.2-3.62,10.49-7.6,14.87-11,1.37-1.06,2.65-2.06,3.81-3l1.33-1c3.18-2.53,5.18-4.18,5.18-4.18l1-4.48,3.92-1.48L1116,18.15l3.83-1.58L1129.37-10l-.39-.23a7,7,0,0,1-.75-.6l-.37-.35c-2.75-2.84-4.72-8.51-5.33-10.44-.14-.42-.21-.67-.21-.67l6.34-9.84h8.09c1.58-19.29,12.38-38.67,17-46.23,1.3-2.11,2.12-3.3,2.12-3.3-.33-.67-.64-1.37-.94-2.07C1150.51-94.31,1149.22-108.34,1149.22-108.34Zm-42.38,76.51,1.45.92-17.47,19.2-5.17-1.72h-4l-.79-2.38Zm-92.07,0,26,16-.8,2.38h-4l-5.16,1.72-17.48-19.2Zm45.23,76v0c0,4.4-.36,13-4.13,14.47a5.94,5.94,0,0,1-4.69-1.06c-1.74-1.5-3.76-5.43-3.83-17.68a9.93,9.93,0,0,0,5.16,1.83,8.35,8.35,0,0,0,4.55-1.09C1059,39.37,1060.09,40.45,1060,44.15Zm10.41,13.45a5.94,5.94,0,0,1-4.69,1.06c-3.8-1.45-4.18-10.22-4.12-14.59-.07-3.63,1-4.69,2.94-3.41a8.24,8.24,0,0,0,4.54,1.09,10,10,0,0,0,5.17-1.83C1074.17,52.17,1072.16,56.1,1070.41,57.6Zm47.52-66.75c-.21,2.6-1.06,8.39-4.52,12.53,0,0-1.23-1.32-2.14-1.24a34.13,34.13,0,0,1-.83,8.12c-1,3.1-2.44,5.24-3.7,1.66-.16.63-.33,1.23-.49,1.8a57,57,0,0,1-1,10.28,10.57,10.57,0,0,1-2.19,4.45c-.68.8-1.47,1.47-2.14,1.27,0,0-1.39.27-2.08-6.87,0-.11-.18-.12-.19,0a102.37,102.37,0,0,1-1.39,10.31h0a10.79,10.79,0,0,1-1.22,3.26c-2.45,3.88-7.42,8.64-8-4.18a.17.17,0,0,0-.33,0C1087,36.37,1085,46.6,1082.25,49c0,0-5.2,6.19-6.09-5.09a26.33,26.33,0,0,1,.54-7.46,25.62,25.62,0,0,0,1-3.29c2.49-.31,5.24-.7,7.23-2.45a10.7,10.7,0,0,0,3.5-6.62,5.87,5.87,0,0,0,5.49.78,9.94,9.94,0,0,0,4.11-3.58,18.07,18.07,0,0,0,3.21-12c-1.12,4-2.35,8.24-5.41,11.12a5.21,5.21,0,0,1-1.8,1.18c-2.75,1-4.45-1.42-5-3.66-.41-1.75-.38-3.62-1.09-5.27a25.62,25.62,0,0,1-.29,3.81,25.16,25.16,0,0,1-2,6.78c-.87,1.86-2,4.22-4,5.1a8.69,8.69,0,0,1-3.58.53l.1-1.34a35.22,35.22,0,0,0-.17-5.53,22.91,22.91,0,0,0-.55-2.69c-.13-.44-.26-.87-.41-1.31s-.34-.77-.46-1.2c-.06,5.6-.26,11.44-2.93,16.36a8.93,8.93,0,0,1-2.75,3.25,4.44,4.44,0,0,1-4.09.54,5.88,5.88,0,0,1-2-1.62,15,15,0,0,1-1.1-1.42l0,0a13.26,13.26,0,0,1-2-3.72l-.09-.19v0c-.57-1.57-.89-2.89-.89-2.89a14.24,14.24,0,0,1-3,6.83h0a17.49,17.49,0,0,1-1.12,1.45,6,6,0,0,1-2,1.62,4.45,4.45,0,0,1-4.09-.54,8.81,8.81,0,0,1-2.74-3.25c-2.67-4.92-2.88-10.76-2.94-16.36-.12.43-.32.79-.46,1.2s-.28.87-.4,1.31a23,23,0,0,0-.56,2.69,35.22,35.22,0,0,0-.17,5.53l.1,1.34a8.72,8.72,0,0,1-3.58-.53c-2-.88-3.11-3.24-4-5.1a25.18,25.18,0,0,1-2.05-6.78,25.62,25.62,0,0,1-.29-3.81c-.71,1.65-.68,3.52-1.09,5.27-.52,2.24-2.21,4.62-5,3.66a5.12,5.12,0,0,1-1.8-1.18c-3.07-2.88-4.3-7.09-5.41-11.12a18,18,0,0,0,3.2,12,9.94,9.94,0,0,0,4.11,3.58,5.87,5.87,0,0,0,5.49-.78,10.7,10.7,0,0,0,3.5,6.62c2,1.75,4.74,2.14,7.23,2.45a27.29,27.29,0,0,0,1,3.29,26,26,0,0,1,.54,7.46c-.89,11.28-6.09,5.09-6.09,5.09-2.74-2.43-4.74-12.66-5.46-16.81a.17.17,0,0,0-.33,0c-.55,12.82-5.52,8.06-8,4.18a10.79,10.79,0,0,1-1.22-3.26h0a98.42,98.42,0,0,1-1.4-10.3.1.1,0,0,0-.19,0c-.69,7.13-2.08,6.86-2.08,6.86-.72.21-1.59-.58-2.29-1.46a10.69,10.69,0,0,1-2-4.27,57,57,0,0,1-1-10.27c-.16-.57-.33-1.17-.49-1.8-1.26,3.58-2.74,1.44-3.7-1.66a34.13,34.13,0,0,1-.83-8.12c-.91-.08-2.14,1.24-2.14,1.24-3.45-4.14-4.3-9.93-4.51-12.53a4.81,4.81,0,0,1,.46-2.48l4-8.59A47.59,47.59,0,0,0,1011-.77l1.42.74c-.43-2.53-.7-4.28-.7-4.28a11.15,11.15,0,0,1,3.62-9.31,4.85,4.85,0,0,1,2.57-1.47,57.32,57.32,0,0,0-.52,10.24c0,1.08.4,9.23,2.86,12.37,0,0,1.44-6,3.34-8.62h0a8.22,8.22,0,0,1,5.1-4c.83,13.35,4.68,13.86,4.68,13.86h.38c0-3.3,2.39-7.83,3.39-9.14a1.74,1.74,0,0,1,2.63-.17c2.19,2.22,3.78,8.31,4.14,10.64,0,.35.08.69.11,1h0a28,28,0,0,0,1.07,4.16v0a78.38,78.38,0,0,1,.59-8,2.12,2.12,0,0,1,1.56-1.84,2.19,2.19,0,0,1,2.31.91c1.72,2.45,4.74,3.75,7.07,4.42h0l.07,0a4.71,4.71,0,0,1,3.42,3.9l.56,4.08a.06.06,0,0,0,.11,0s.44-2.69.85-4.38,1-3.12,3.31-3.66,5.32-2,7-4.41a2.17,2.17,0,0,1,2.3-.91,2.13,2.13,0,0,1,1.57,1.84c.22,1.83.52,4.81.58,8v0a28,28,0,0,0,1.07-4.16h0c0-.35.05-.69.1-1,.36-2.33,2-8.42,4.14-10.64a1.76,1.76,0,0,1,2.64.17c1,1.31,3.39,5.84,3.39,9.14h.37s3.85-.51,4.68-13.86a8.19,8.19,0,0,1,5.1,4h0c1.91,2.57,3.34,8.62,3.34,8.62,2.46-3.14,2.82-11.29,2.86-12.37a56.4,56.4,0,0,0-.52-10.24,4.85,4.85,0,0,1,2.57,1.47,11.15,11.15,0,0,1,3.62,9.31s-.26,1.75-.7,4.28l1.43-.74a47.63,47.63,0,0,0,2.79-19.45l4.06,8.59A4.91,4.91,0,0,1,1117.93-9.15ZM1015-97.88l-10.72-26.58L1016-159.69l1.1,27.57a8.93,8.93,0,0,0,2.17,5.52l22,25.2-13.2-.53a1.15,1.15,0,0,0-.8,2l23.14,24.11-.92-37.09-21.16-17.89a10.91,10.91,0,0,1-3.82-8.36v-34.44a.52.52,0,0,1,1-.18l11.79,31.76,23.45,18.89,23.46-18.89L1096-173.83a.51.51,0,0,1,1,.18v34.44a10.93,10.93,0,0,1-3.81,8.36L1072-113l-.91,37.09L1094.23-100a1.15,1.15,0,0,0-.8-2l-13.2.53,22-25.2a8.93,8.93,0,0,0,2.17-5.52l1.09-27.57,11.64,35.23-10.72,26.58-45.7,49Zm147.46-8.87c-.06-1-.11-1.78-.17-2.42l-.42-61.91-9.65,18.26-11.45-42.67-14.06-28.38-23-11.26,3.33,8.73a87.87,87.87,0,0,1,4.45,20.24l-18.74-36.43L1070-258.19l2.83,9.85c5.23,18.24,15.22,69.11-1.12,85.61l-10.91,9.81-10.91-9.81c-16.34-16.5-6.35-67.37-1.12-85.61l2.83-9.85-22.77,15.6-18.73,36.41a88.34,88.34,0,0,1,4.44-20.22l3.33-8.73-23,11.26-14.06,28.38-11.45,42.67-9.65-18.26-.43,61.91c0,.64-.1,1.46-.17,2.42-.31,5-.9,14.21-3.75,20.1l-2.93,6,3.8,5.52c.16.23,15.41,22.7,17.15,43.94l.87,10.58h12.06c-.23.47-.43.82-.56,1l-7.67,4.21,14.6,40.59,3.26,1.34,4.73,18,3.66,1.39.51,2.26,2.91,2.4.44.47a151.39,151.39,0,0,0,17.94,16.61c1.21.93,2.4,1.93,3.4,2.8a135,135,0,0,0,17.15,12.88c4.87,4.07,14.09,12.83,14.28,21v0s0,0,0,.08v-.1c.28-11.07,17.74-23.3,17.74-23.3l-.39.14a154.11,154.11,0,0,0,13.79-10.69c1-.86,2.19-1.86,3.41-2.8a152.17,152.17,0,0,0,17.94-16.61l.44-.47,2.91-2.4.51-2.26,3.66-1.39,4.73-18,3.26-1.34,14.6-40.59-7.66-4.21a10.13,10.13,0,0,1-.57-1h12.06l.86-10.58c1.74-21.24,17-43.71,17.15-43.93l3.81-5.53-2.93-6C1163.41-92.54,1162.82-101.79,1162.5-106.75Zm-3.19,27.48c-.17.24-16.52,24.22-18.42,47.52l-.32,3.81h-9.65l-4.08,6.34.72,1.77a20.78,20.78,0,0,0,3.17,5.69l.4.42,3.34,1.83L1123.11,19.7l-3.63,1.5L1114.79,39,1111,40.46l-.82,3.67L1109,45a9.78,9.78,0,0,0-1,1,143.83,143.83,0,0,1-17,15.8c-1.35,1-2.64,2.12-3.71,3-15.59,13.34-23,16.14-26.56,16.14-5,0-13.91-5.43-26.42-16.14-1.08-.92-2.37-2-3.72-3a144.59,144.59,0,0,1-17-15.8,9.78,9.78,0,0,0-1-1l-1.1-.91-.82-3.67L1006.81,39l-4.7-17.81-3.62-1.5L987.13-11.89l3.34-1.83.4-.42A20.78,20.78,0,0,0,994-19.83l.72-1.77-4.08-6.34H981l-.32-3.81C978.8-55,962.45-79,962.29-79.27l-1.37-2L962-83.43c3.49-7.2,4.13-17.38,4.48-22.86.06-.95.11-1.76.17-2.37l.24-33.06,4.73,8.95,16.13-60.1,12.63-25.48,4.79-2.35c-1.81,7.28-3.7,18.47-2.34,30.07l1.42,12,30.31-58.92,4.73-3.24c-4.55,19.78-12.33,64.51,5,82.82h0c.16.17.31.36.48.53l8.21,7.39c3.82,4.2,7.47,9.56,7.6,14.79h0c.11-4.7,3.17-9.51,6.64-13.48l9.53-8.57.14-.13.47-.52,0,0h0c17.33-18.3,9.55-63,5-82.82l4.72,3.24,30.32,58.92,1.41-12c1.37-11.6-.53-22.79-2.33-30.07l4.79,2.35,12.63,25.48,16.13,60.1,4.73-8.95L1155-109l0,.31c0,.61.1,1.42.16,2.37.35,5.48,1,15.66,4.49,22.86l1,2.17Z" fill="none"/></clipPath></defs><g id="Text"><path d="M38.19,430.79a79.57,79.57,0,0,1,8.38.82l-1.07,5.81H44.1c0-3.94-3.33-4.84-6-4.84-5.83,0-8.66,4.8-8.66,10.24,0,6.13,3.69,10.71,9.45,10.71a12.93,12.93,0,0,0,2.94-.36v-4.62c0-1.72-.14-2.15-3.3-2.61v-1.08h9.06l.18.68s-1.39.65-1.39,3.41v5.66c-2.44.17-5.59.93-8.67.93-7.27,0-13.46-4.19-13.46-11.86C24.23,437.24,28.56,430.79,38.19,430.79Z" transform="translate(-24.23 349.5)" fill="#f2f2f3"/><path d="M71.9,453.89c1.47-.18,2.4-1,2.4-2.22V434.91c0-1.72-.18-2.08-2.76-2.62v-1.07H81.68c6.3,0,8.73,2.79,8.73,5.77s-2.54,5-4.4,6.16v.6l5.19,7.81c1.4,2.08,2.08,2.11,2.72,2.19l.4,0-.15,1.33H87.3l-.15-.15a16.3,16.3,0,0,0-2-3.9l-4-6.12H79.53l-.43.43v6.3a9.13,9.13,0,0,1-.18,1.83l3.22.32L82,455l-10.1.21Zm9.81-10.82c1.58,0,3.44-1.64,3.44-5,0-2.87-1.4-5-4.73-5h-.89l-.43.43v9.56Z" transform="translate(-24.23 349.5)" fill="#f2f2f3"/><path d="M117,453.89c1.51-.18,2.4-1,2.4-2.33V434.91c0-1.72,0-2.08-2.47-2.62v-1.07h2.62c4.47,0,5.65-.14,5.65-.14l.18.14a7.79,7.79,0,0,0-1.18,4.51v15.83a10.53,10.53,0,0,1-.18,1.94l3,.32-.15,1.18-9.92.21Z" transform="translate(-24.23 349.5)" fill="#f2f2f3"/><path d="M151.17,453.89c1.61-.18,2.57-.93,2.57-2.22v-15.4c0-2.29-.53-3.19-2.9-4v-1.07h1c1.76,0,4.69-.14,4.69-.14a8.39,8.39,0,0,0,1.4,1.86l12.53,13.21c.47.5,1,1.18,1.47,1.72V435.12c0-1.57,0-2.43-2.9-2.72v-1.18h7.24l.17.68a3.57,3.57,0,0,0-2.47,3.62v19.77h-1.5L157.25,439a18.28,18.28,0,0,1-1.47-1.76v14.47a11.08,11.08,0,0,1-.17,1.93l3.22.22-.14,1.18-7.52.21Z" transform="translate(-24.23 349.5)" fill="#f2f2f3"/><path d="M200.77,453.89c1.62-.18,2.58-.93,2.58-2.22v-15.4c0-2.29-.53-3.19-2.9-4v-1.07h1c1.76,0,4.69-.14,4.69-.14a8.39,8.39,0,0,0,1.4,1.86l12.53,13.21c.47.5,1,1.18,1.47,1.72V435.12c0-1.57,0-2.43-2.9-2.72v-1.18h7.23l.18.68a3.57,3.57,0,0,0-2.47,3.62v19.77h-1.5L206.86,439a18.28,18.28,0,0,1-1.47-1.76v14.47a11.08,11.08,0,0,1-.17,1.93l3.22.22L208.3,455l-7.53.21Z" transform="translate(-24.23 349.5)" fill="#f2f2f3"/><path d="M250.38,453.89c1.51-.18,2.4-1,2.4-2.33V434.91c0-1.72,0-2.08-2.47-2.62v-1.07h2.62c4.47,0,5.65-.14,5.65-.14l.18.14a7.79,7.79,0,0,0-1.18,4.51v15.83a10.53,10.53,0,0,1-.18,1.94l3.05.32L260.3,455l-9.92.21Z" transform="translate(-24.23 349.5)" fill="#f2f2f3"/><path d="M284.55,453.89c1.62-.18,2.58-.93,2.58-2.22v-15.4c0-2.29-.53-3.19-2.9-4v-1.07h1c1.75,0,4.69-.14,4.69-.14a8.39,8.39,0,0,0,1.4,1.86l12.53,13.21c.47.5,1,1.18,1.47,1.72V435.12c0-1.57,0-2.43-2.9-2.72v-1.18h7.23l.18.68a3.57,3.57,0,0,0-2.47,3.62v19.77h-1.5L290.64,439a18.28,18.28,0,0,1-1.47-1.76v14.47a10.49,10.49,0,0,1-.18,1.93l3.23.22-.15,1.18-7.52.21Z" transform="translate(-24.23 349.5)" fill="#f2f2f3"/><path d="M347.52,430.79a79.57,79.57,0,0,1,8.38.82l-1.07,5.81h-1.4c0-3.94-3.33-4.84-6-4.84-5.84,0-8.66,4.8-8.66,10.24,0,6.13,3.68,10.71,9.45,10.71a12.93,12.93,0,0,0,2.94-.36v-4.62c0-1.72-.15-2.15-3.3-2.61v-1.08h9.06l.18.68s-1.39.65-1.39,3.41v5.66c-2.44.17-5.59.93-8.67.93-7.27,0-13.47-4.19-13.47-11.86C333.55,437.24,337.89,430.79,347.52,430.79Z" transform="translate(-24.23 349.5)" fill="#f2f2f3"/><path d="M394.3,430.79a63.5,63.5,0,0,1,7.91.79L401.14,437H400c0-3.94-3.11-4.94-6-4.94-6.41,0-9.81,5.08-9.81,10.81,0,6.59,4.62,11.36,11.5,11.36a18.44,18.44,0,0,0,3.83-.47V448.3c0-1.72-.15-2.15-3.3-2.61v-.83h7.13l.18.43s-1.4.65-1.4,3.41v5.91a47.75,47.75,0,0,1-7.95.93c-7.13,0-12.93-4.19-12.93-11.89C381.26,437.24,385.31,430.79,394.3,430.79Z" transform="translate(-24.23 349.5)" fill="#f2f2f3"/><path d="M440.86,430.79c7.09,0,12.14,4.8,12.14,11.53a13,13,0,0,1-13,13.22,11.8,11.8,0,0,1-12-12.11A12.35,12.35,0,0,1,440.86,430.79Zm-.14,23.42c5.84,0,9.38-5.8,9.38-11,0-5.41-3.65-11.06-9.77-11.06-5.77,0-9.32,5.12-9.32,10.42S434.56,454.21,440.72,454.21Z" transform="translate(-24.23 349.5)" fill="#f2f2f3"/><path d="M477.94,454.14c1.64-.18,2.65-.93,2.65-2.22V434.66c0-1.72-.18-2.08-3-2.62v-.82h9.52c6.81,0,13.58,2.4,13.58,11.1,0,8-5.8,12.79-15,12.79h-2.83c-1.58,0-4.87.1-4.87.1Zm7.7-.25c9.13,0,12.1-5.05,12.1-10.82,0-6.48-3.72-10.63-10.85-10.63h-3.4l-.32.35v19.09a11.86,11.86,0,0,1-.18,2Z" transform="translate(-24.23 349.5)" fill="#f2f2f3"/></g><path id="Symbol-2" data-name="Symbol" d="M353.81,185.46h0l-9.49,30.8c-3,4.05-8.37,4.05-8.37,4.05l14-51.79-13.84-46.76-8.73-7.32c3.52,26.81,5.7,54.54,5.7,54.54l-17.66,38.3-35.6,36.5L275,271.29l-9.59,5.49-9.6-5.49-4.86-27.51-35.6-36.5L197.68,169s2.19-27.73,5.7-54.54l-8.73,7.32-13.84,46.76,14,51.79s-5.4,0-8.36-4.05l-9.5-30.8h0s-1.29,14-5.74,24.65c-.3.71-.61,1.4-.94,2.07,0,0,.82,1.19,2.12,3.31,4.65,7.56,15.44,26.94,17,46.22h8.1l6.34,9.85s-.07.24-.21.66c-.61,1.94-2.59,7.61-5.34,10.44q-.18.19-.36.36a6.68,6.68,0,0,1-.75.59l-.39.24,9.54,26.52L210.2,312l4.67,17.74,3.92,1.48,1,4.47s2,1.65,5.19,4.18l1.33,1.06c1.16.91,2.44,1.92,3.81,3,4.38,3.39,9.67,7.36,14.87,11l1,.67a101.67,101.67,0,0,0,14.83,8.89l.69.29a14.74,14.74,0,0,0,3,.91,5.41,5.41,0,0,0,.94.09,5.3,5.3,0,0,0,.93-.09,14.74,14.74,0,0,0,3-.91l.69-.29a102.23,102.23,0,0,0,14.84-8.89l1-.67c5.2-3.63,10.49-7.6,14.87-11,1.37-1.06,2.65-2.07,3.81-3l1.34-1.06c3.18-2.53,5.18-4.18,5.18-4.18l1-4.47,3.92-1.48L320.6,312l3.82-1.58L334,283.85l-.39-.24a7.73,7.73,0,0,1-.75-.59q-.18-.16-.36-.36c-2.75-2.83-4.72-8.5-5.34-10.44l-.2-.66,6.34-9.85h8.09c1.58-19.28,12.37-38.66,17-46.22,1.3-2.12,2.12-3.31,2.12-3.31-.32-.67-.64-1.36-.93-2.07C355.1,199.49,353.81,185.46,353.81,185.46ZM311.43,262l1.46.93-17.48,19.2-5.16-1.72h-4l-.79-2.38Zm-92.07,0,25.95,16-.79,2.38h-4l-5.17,1.72L217.9,262.9Zm45.24,76s0,0,0,0c.05,4.41-.36,13-4.12,14.48a5.94,5.94,0,0,1-4.69-1.06C254,349.9,252,346,251.94,333.73a10.08,10.08,0,0,0,5.17,1.83,8.31,8.31,0,0,0,4.54-1.09C263.63,333.18,264.68,334.25,264.6,338ZM275,351.41a5.92,5.92,0,0,1-4.69,1.06c-3.79-1.45-4.17-10.22-4.12-14.6-.07-3.63,1-4.68,2.95-3.4a8.33,8.33,0,0,0,4.53,1.09,10.08,10.08,0,0,0,5.17-1.83C278.77,346,276.75,349.9,275,351.41Zm47.52-66.76c-.21,2.61-1.06,8.4-4.51,12.53,0,0-1.24-1.31-2.14-1.23a34,34,0,0,1-.83,8.11c-1,3.11-2.44,5.25-3.71,1.67-.16.63-.32,1.23-.49,1.8a55.25,55.25,0,0,1-1,10.28,10.62,10.62,0,0,1-2.19,4.45c-.67.8-1.47,1.46-2.13,1.26,0,0-1.4.28-2.08-6.86a.1.1,0,0,0-.19,0,99.39,99.39,0,0,1-1.4,10.31h0a11.25,11.25,0,0,1-1.22,3.27c-2.46,3.87-7.42,8.63-8-4.18a.17.17,0,0,0-.34,0c-.71,4.16-2.71,14.38-5.45,16.81,0,0-5.2,6.2-6.09-5.09a26,26,0,0,1,.54-7.46,28.41,28.41,0,0,0,1-3.28c2.49-.31,5.23-.7,7.22-2.45a10.74,10.74,0,0,0,3.51-6.62,5.83,5.83,0,0,0,5.49.77,9.86,9.86,0,0,0,4.11-3.58,18,18,0,0,0,3.2-12c-1.12,4-2.34,8.24-5.41,11.12a5.33,5.33,0,0,1-1.8,1.17c-2.75,1-4.44-1.41-5-3.65-.41-1.75-.38-3.62-1.09-5.28a23.23,23.23,0,0,1-.29,3.82,24.8,24.8,0,0,1-2,6.78c-.86,1.86-2,4.22-4,5.1a8.72,8.72,0,0,1-3.58.53l.09-1.34a35.22,35.22,0,0,0-.17-5.53,20.36,20.36,0,0,0-.55-2.69c-.12-.44-.25-.88-.4-1.31s-.34-.78-.46-1.2c-.06,5.6-.27,11.43-2.94,16.35a8.74,8.74,0,0,1-2.74,3.25,4.43,4.43,0,0,1-4.1.54,5.83,5.83,0,0,1-2-1.61,16.81,16.81,0,0,1-1.1-1.42l0,0a13.67,13.67,0,0,1-2-3.72c0-.07-.06-.13-.08-.2v0a29.6,29.6,0,0,1-.89-2.89,14.35,14.35,0,0,1-2.95,6.84h0a17.49,17.49,0,0,1-1.12,1.45,5.74,5.74,0,0,1-2,1.61,4.41,4.41,0,0,1-4.09-.54,8.68,8.68,0,0,1-2.75-3.25c-2.67-4.92-2.88-10.75-2.94-16.35-.12.42-.31.79-.45,1.2s-.29.87-.41,1.31a22.11,22.11,0,0,0-.55,2.69,35.22,35.22,0,0,0-.17,5.53l.1,1.34a8.74,8.74,0,0,1-3.59-.53c-2-.88-3.11-3.24-4-5.1a25.16,25.16,0,0,1-2-6.78,25.65,25.65,0,0,1-.29-3.82c-.71,1.66-.68,3.53-1.09,5.28-.53,2.24-2.22,4.62-5,3.65a5.33,5.33,0,0,1-1.8-1.17c-3.07-2.88-4.29-7.1-5.41-11.12a18,18,0,0,0,3.2,12,9.82,9.82,0,0,0,4.12,3.58,5.84,5.84,0,0,0,5.49-.77,10.73,10.73,0,0,0,3.5,6.62c2,1.75,4.74,2.14,7.22,2.45a28.41,28.41,0,0,0,1,3.28,26,26,0,0,1,.54,7.46c-.89,11.29-6.08,5.09-6.08,5.09-2.75-2.43-4.75-12.65-5.46-16.81a.17.17,0,0,0-.34,0c-.55,12.81-5.51,8.05-8,4.18A11.25,11.25,0,0,1,229,327h0a99.35,99.35,0,0,1-1.39-10.3c0-.12-.19-.11-.2,0-.68,7.13-2.07,6.85-2.08,6.85-.71.22-1.58-.58-2.29-1.45a10.65,10.65,0,0,1-2-4.28,55,55,0,0,1-1-10.26c-.17-.57-.33-1.17-.49-1.8-1.27,3.58-2.75,1.44-3.71-1.67a35.11,35.11,0,0,1-.83-8.11c-.9-.08-2.13,1.23-2.13,1.23-3.46-4.13-4.31-9.92-4.52-12.53a4.84,4.84,0,0,1,.46-2.48l4.06-8.59A47.39,47.39,0,0,0,215.57,293l1.43.74c-.44-2.52-.7-4.27-.7-4.27a11.14,11.14,0,0,1,3.61-9.31,4.9,4.9,0,0,1,2.58-1.47A56.25,56.25,0,0,0,222,289c0,1.08.4,9.23,2.86,12.37,0,0,1.43-6,3.34-8.62h0a8.18,8.18,0,0,1,5.1-4c.82,13.36,4.68,13.87,4.68,13.87h.37c0-3.3,2.39-7.83,3.39-9.14a1.75,1.75,0,0,1,2.64-.18c2.19,2.23,3.78,8.32,4.13,10.65a9,9,0,0,1,.11,1h0a26.75,26.75,0,0,0,1.07,4.17v0c.06-3.23.36-6.21.58-8.05a2.12,2.12,0,0,1,1.57-1.83,2.17,2.17,0,0,1,2.3.91c1.73,2.44,4.75,3.74,7.07,4.42h0l.08,0a4.76,4.76,0,0,1,3.42,3.91l.56,4.08c0,.07.1.07.11,0s.44-2.68.84-4.37,1-3.12,3.32-3.66,5.31-2,7-4.41a2.18,2.18,0,0,1,2.31-.91,2.12,2.12,0,0,1,1.56,1.83c.23,1.84.52,4.82.59,8.05v0a27.54,27.54,0,0,0,1.06-4.17h0a9,9,0,0,1,.11-1c.36-2.33,1.94-8.42,4.14-10.65a1.74,1.74,0,0,1,2.63.18c1,1.31,3.39,5.84,3.39,9.14h.37s3.86-.51,4.69-13.87a8.18,8.18,0,0,1,5.09,4h0c1.91,2.58,3.34,8.62,3.34,8.62,2.46-3.14,2.83-11.29,2.87-12.37a57.14,57.14,0,0,0-.53-10.23,4.86,4.86,0,0,1,2.58,1.47,11.11,11.11,0,0,1,3.61,9.31s-.26,1.75-.7,4.27l1.43-.74a47.53,47.53,0,0,0,2.8-19.45l4.05,8.59A4.84,4.84,0,0,1,322.52,284.65ZM219.63,195.93l-10.72-26.58,11.64-35.23,1.09,27.56a9,9,0,0,0,2.17,5.53l22,25.2-13.19-.53a1.15,1.15,0,0,0-.81,2L255,217.94l-.91-37.09L232.89,163a11,11,0,0,1-3.81-8.36V120.15a.51.51,0,0,1,1-.17l11.79,31.75,23.46,18.9,23.45-18.9L300.57,120a.52.52,0,0,1,1,.17V154.6a11,11,0,0,1-3.81,8.36L276.6,180.85l-.92,37.09,23.14-24.11a1.14,1.14,0,0,0-.8-2l-13.2.53,22-25.2a9,9,0,0,0,2.18-5.53l1.09-27.56,11.63,35.23L311,195.93l-45.69,49Zm147.47-8.88c-.06-1-.12-1.77-.17-2.42l-.42-61.9L356.86,141,345.4,98.31,331.34,69.94l-23-11.26,3.32,8.73a87.25,87.25,0,0,1,4.45,20.23L297.36,51.22l-22.77-15.6,2.83,9.85c5.24,18.23,15.22,69.11-1.11,85.61l-10.91,9.8-10.92-9.81c-16.33-16.49-6.35-67.37-1.12-85.6l2.83-9.85-22.77,15.6L214.69,87.63a89,89,0,0,1,4.44-20.22l3.33-8.73-23,11.26L185.39,98.31,173.93,141l-9.65-18.26-.42,61.9c-.06.65-.11,1.47-.17,2.42-.32,5-.9,14.22-3.76,20.11l-2.92,6,3.8,5.52c.15.22,15.41,22.7,17.15,43.93l.87,10.59h12.06c-.24.47-.43.81-.57,1l-7.67,4.2,14.6,40.6,3.26,1.34,4.73,17.95,3.67,1.38.5,2.27,2.92,2.4.43.46A152.26,152.26,0,0,0,230.7,361.5c1.21.93,2.4,1.93,3.41,2.79a133.56,133.56,0,0,0,17.15,12.88c4.86,4.07,14.08,12.83,14.28,21v.09a.19.19,0,0,0,0-.08v0c.28-11.08,17.73-23.3,17.73-23.3l-.39.14a151.13,151.13,0,0,0,13.8-10.7c1-.85,2.19-1.86,3.41-2.79A152.26,152.26,0,0,0,318,344.88l.43-.46,2.91-2.4.51-2.27,3.66-1.38,4.74-17.95,3.25-1.34,14.6-40.6-7.66-4.2c-.14-.23-.34-.58-.57-1H352l.87-10.59c1.74-21.23,17-43.71,17.14-43.93l3.81-5.52-2.92-6C368,201.27,367.41,192,367.1,187.05Zm-3.2,27.49c-.16.24-16.51,24.22-18.42,47.51l-.31,3.81h-9.66l-4.08,6.35.73,1.77a20.27,20.27,0,0,0,3.17,5.69l.39.42,3.34,1.83L327.7,313.51,324.08,315l-4.7,17.82-3.82,1.44-.83,3.68-1.1.91a10.81,10.81,0,0,0-1,1,144.77,144.77,0,0,1-17,15.81c-1.36,1-2.64,2.12-3.72,3-15.58,13.34-23,16.14-26.55,16.14-5,0-13.91-5.43-26.43-16.14-1.08-.92-2.36-2-3.71-3a144.77,144.77,0,0,1-17.05-15.81,11.09,11.09,0,0,0-1-1l-1.1-.9-.82-3.68-3.82-1.44L206.71,315l-3.62-1.49-11.37-31.59,3.34-1.83.4-.42a20.78,20.78,0,0,0,3.17-5.69l.73-1.77-4.09-6.35h-9.65l-.31-3.81c-1.91-23.29-18.26-47.27-18.43-47.51l-1.37-2,1.06-2.17c3.48-7.2,4.13-17.39,4.48-22.86.06-1,.11-1.76.16-2.37l.24-33.07,4.74,8.95,16.13-60.1,12.62-25.47,4.8-2.35c-1.81,7.28-3.71,18.46-2.34,30.06l1.41,12,30.32-58.92L243.85,53c-4.55,19.78-12.32,64.5,5,82.81h0c.16.17.32.36.48.52l8.22,7.39c3.81,4.2,7.46,9.56,7.59,14.8h0c.12-4.71,3.17-9.51,6.65-13.49l9.52-8.56.14-.14c.17-.16.31-.34.47-.51l0,0h0c17.33-18.31,9.55-63,5-82.82l4.73,3.24L322,115.17l1.42-12c1.37-11.6-.53-22.78-2.34-30.06l4.8,2.35,12.62,25.47L354.6,161l4.73-8.95.23,32.75v.32c.06.61.11,1.42.17,2.37.35,5.47,1,15.66,4.48,22.86l1,2.17Z" transform="translate(-24.23 349.5)" fill="#f2f2f3"/><path d="M912.1-132.65l36-32.72,18.12-55c.29-1,1.55-.76,1.55.3v59.66A20,20,0,0,1,962-145.93l-32.54,31L928-50.71l35.56-41.76c1.08-1.27.28-3.44-1.23-3.37l-20.28.91,33.84-43.64a16.67,16.67,0,0,0,3.34-9.57l1.68-47.74,17.88,61-16.48,46L912.1-3.95l-.71-.86V-133.29Z" transform="translate(-24.23 349.5)" fill="#7f1d17"/><path d="M825.39-134.87l17.88-61L845-148.14a16.67,16.67,0,0,0,3.34,9.57l33.84,43.64-20.28-.91c-1.51-.07-2.31,2.1-1.23,3.37l35.56,41.76-1.4-64.23-32.54-31a20,20,0,0,1-5.86-14.48v-59.66c0-1.06,1.26-1.31,1.55-.3l18.12,55,35.34,32.08V-4.81l-69.52-84Z" transform="translate(-24.23 349.5)"/><g clip-path="url(#clip-path)"><rect x="1036.55" width="346.77" height="468" fill="#7f1d17"/></g></svg>