<svg id="Logo" xmlns="http://www.w3.org/2000/svg" viewBox="0 0 216.78 362.62"><path id="Symbol" d="M307.14,175.85h0l-9.49,30.8c-3,4-8.37,4-8.37,4l14-51.79-13.84-46.76-8.73-7.31c3.52,26.8,5.7,54.54,5.7,54.54l-17.66,38.29-35.6,36.5-4.86,27.51-9.59,5.5-9.6-5.5-4.85-27.51-35.61-36.5L151,159.37s2.19-27.74,5.7-54.54L148,112.14,134.14,158.9l14,51.79s-5.39,0-8.36-4l-9.5-30.8h0s-1.29,14-5.74,24.64c-.3.71-.61,1.41-.94,2.08,0,0,.82,1.19,2.12,3.3,4.65,7.56,15.45,26.94,17,46.23h8.09l6.34,9.84s-.07.25-.21.67c-.61,1.93-2.58,7.6-5.34,10.44l-.36.35a7,7,0,0,1-.75.6l-.39.23,9.54,26.52,3.83,1.58,4.67,17.74,3.92,1.48,1,4.48s2,1.65,5.19,4.17l1.33,1.06c1.16.92,2.44,1.92,3.81,3,4.38,3.39,9.67,7.36,14.87,11l1,.67a101.67,101.67,0,0,0,14.83,8.89l.69.29a14.3,14.3,0,0,0,3,.91,5.41,5.41,0,0,0,.94.09,5.5,5.5,0,0,0,.94-.09,14.23,14.23,0,0,0,3-.91l.69-.29a101.7,101.7,0,0,0,14.84-8.89l1-.67c5.2-3.63,10.49-7.6,14.87-11,1.37-1.06,2.65-2.06,3.81-3l1.34-1.06c3.18-2.52,5.18-4.17,5.18-4.17l1-4.48,3.92-1.48,4.68-17.74,3.83-1.58,9.53-26.52-.38-.23a8.32,8.32,0,0,1-.76-.6l-.36-.35c-2.75-2.84-4.72-8.51-5.34-10.44-.13-.42-.2-.67-.2-.67l6.34-9.84h8.09c1.58-19.29,12.37-38.67,17-46.23,1.3-2.11,2.12-3.3,2.12-3.3-.32-.67-.63-1.37-.93-2.08C308.43,189.88,307.14,175.85,307.14,175.85Zm-42.38,76.51,1.46.92-17.48,19.2-5.16-1.72h-4l-.8-2.38Zm-92.07,0,25.95,16-.79,2.38h-4l-5.17,1.72-17.48-19.2Zm45.24,76a.09.09,0,0,1,0,.05c.05,4.4-.36,13-4.12,14.47a5.94,5.94,0,0,1-4.69-1.06c-1.75-1.5-3.77-5.43-3.84-17.68a10,10,0,0,0,5.17,1.83,8.31,8.31,0,0,0,4.54-1.09C217,323.56,218,324.64,217.93,328.33Zm10.4,13.46a5.91,5.91,0,0,1-4.68,1.06c-3.8-1.45-4.18-10.22-4.13-14.59-.07-3.64,1-4.69,2.95-3.41a8.33,8.33,0,0,0,4.53,1.09,9.93,9.93,0,0,0,5.17-1.83C232.1,336.36,230.08,340.29,228.33,341.79ZM275.85,275c-.21,2.6-1.06,8.39-4.51,12.53,0,0-1.23-1.32-2.14-1.24a34,34,0,0,1-.83,8.11c-1,3.11-2.44,5.25-3.71,1.67q-.24.94-.48,1.8a56.15,56.15,0,0,1-1,10.28,10.45,10.45,0,0,1-2.19,4.45c-.67.8-1.47,1.47-2.13,1.27,0,0-1.4.27-2.08-6.87,0-.11-.18-.13-.19,0a99.39,99.39,0,0,1-1.4,10.31h0a10.9,10.9,0,0,1-1.22,3.26c-2.46,3.87-7.42,8.64-8-4.18a.17.17,0,0,0-.33,0c-.72,4.16-2.72,14.39-5.46,16.81,0,0-5.2,6.2-6.09-5.09a25.93,25.93,0,0,1,.54-7.45,27.29,27.29,0,0,0,1-3.29c2.49-.31,5.23-.7,7.22-2.45a10.67,10.67,0,0,0,3.51-6.62,5.87,5.87,0,0,0,5.49.78,9.94,9.94,0,0,0,4.11-3.58,18,18,0,0,0,3.2-12c-1.11,4-2.34,8.24-5.41,11.12a5.09,5.09,0,0,1-1.8,1.17c-2.75,1-4.44-1.41-5-3.65-.41-1.75-.37-3.62-1.08-5.27a25.62,25.62,0,0,1-.29,3.81,25.18,25.18,0,0,1-2.05,6.78c-.86,1.86-2,4.22-4,5.1a8.72,8.72,0,0,1-3.58.53l.09-1.34a35.22,35.22,0,0,0-.17-5.53,20.69,20.69,0,0,0-.55-2.69c-.12-.44-.25-.88-.4-1.31s-.34-.77-.46-1.2c-.06,5.6-.27,11.44-2.94,16.35a8.85,8.85,0,0,1-2.74,3.26,4.42,4.42,0,0,1-4.09.53,5.77,5.77,0,0,1-2-1.61c-.39-.45-.75-.93-1.1-1.42l0,0a13.67,13.67,0,0,1-2-3.72c0-.06-.06-.13-.08-.19v0a29.94,29.94,0,0,1-.89-2.88,14.34,14.34,0,0,1-2.95,6.83h0a17.49,17.49,0,0,1-1.12,1.45,5.74,5.74,0,0,1-2,1.61,4.41,4.41,0,0,1-4.09-.53,8.88,8.88,0,0,1-2.75-3.26c-2.67-4.91-2.87-10.75-2.93-16.35-.13.43-.32.79-.46,1.2s-.29.87-.41,1.31a22.5,22.5,0,0,0-.55,2.69,35.22,35.22,0,0,0-.17,5.53l.1,1.34a8.69,8.69,0,0,1-3.58-.53c-2-.88-3.11-3.24-4-5.1a25.16,25.16,0,0,1-2-6.78,25.62,25.62,0,0,1-.29-3.81c-.71,1.65-.68,3.52-1.09,5.27-.53,2.24-2.22,4.62-5,3.65a5.18,5.18,0,0,1-1.8-1.17c-3.07-2.88-4.29-7.09-5.41-11.12a18.07,18.07,0,0,0,3.2,12,10,10,0,0,0,4.12,3.58,5.87,5.87,0,0,0,5.49-.78,10.7,10.7,0,0,0,3.5,6.62c2,1.75,4.74,2.14,7.23,2.45a27.24,27.24,0,0,0,1,3.29,25.58,25.58,0,0,1,.54,7.45c-.89,11.29-6.08,5.09-6.08,5.09-2.75-2.42-4.75-12.65-5.46-16.81a.17.17,0,0,0-.33,0c-.55,12.82-5.52,8.05-8,4.18a11.17,11.17,0,0,1-1.23-3.26h0a98.61,98.61,0,0,1-1.39-10.3c0-.12-.18-.11-.2,0-.68,7.13-2.07,6.86-2.07,6.86-.72.21-1.59-.58-2.3-1.46a10.67,10.67,0,0,1-2-4.27,55.23,55.23,0,0,1-1-10.27c-.17-.57-.33-1.17-.49-1.8-1.26,3.58-2.75,1.44-3.7-1.67a34.49,34.49,0,0,1-.84-8.11c-.9-.08-2.13,1.24-2.13,1.24-3.46-4.14-4.31-9.93-4.52-12.53a4.91,4.91,0,0,1,.46-2.48l4.06-8.6a47.48,47.48,0,0,0,2.79,19.46l1.43.73c-.44-2.52-.7-4.27-.7-4.27a11.14,11.14,0,0,1,3.61-9.31,4.9,4.9,0,0,1,2.58-1.47,56.36,56.36,0,0,0-.52,10.24c0,1.07.4,9.22,2.86,12.37,0,0,1.43-6,3.34-8.62h0a8.15,8.15,0,0,1,5.1-4c.82,13.35,4.68,13.86,4.68,13.86h.37c0-3.3,2.39-7.83,3.39-9.14a1.76,1.76,0,0,1,2.64-.18c2.19,2.23,3.78,8.32,4.14,10.65.05.35.08.69.1,1h0a26.75,26.75,0,0,0,1.07,4.17v0c.06-3.23.36-6.21.58-8a2.13,2.13,0,0,1,1.57-1.84,2.17,2.17,0,0,1,2.3.91c1.73,2.45,4.75,3.75,7.07,4.42h0l.08,0a4.76,4.76,0,0,1,3.42,3.91l.56,4.08a.06.06,0,0,0,.11,0s.44-2.69.84-4.38,1-3.12,3.32-3.66,5.32-2,7-4.41a2.18,2.18,0,0,1,2.31-.91,2.13,2.13,0,0,1,1.56,1.84c.23,1.83.52,4.81.59,8v0a28,28,0,0,0,1.07-4.17h0c0-.34.06-.68.11-1,.36-2.33,1.94-8.42,4.14-10.65a1.75,1.75,0,0,1,2.63.18c1,1.31,3.39,5.84,3.39,9.14h.38s3.85-.51,4.68-13.86a8.14,8.14,0,0,1,5.09,4h0c1.9,2.57,3.34,8.62,3.34,8.62,2.46-3.15,2.82-11.3,2.86-12.37a57.27,57.27,0,0,0-.52-10.24,4.85,4.85,0,0,1,2.57,1.47,11.13,11.13,0,0,1,3.62,9.31s-.27,1.75-.7,4.27l1.42-.73a47.62,47.62,0,0,0,2.8-19.46l4.05,8.6A4.81,4.81,0,0,1,275.85,275ZM173,186.31l-10.71-26.58,11.63-35.23L175,152.07a8.93,8.93,0,0,0,2.17,5.52l22,25.2L186,182.26a1.15,1.15,0,0,0-.81,2l23.14,24.11-.91-37.09-21.17-17.89a10.93,10.93,0,0,1-3.81-8.36V110.53a.51.51,0,0,1,1-.17l11.79,31.75L218.66,161l23.45-18.9,11.8-31.75a.51.51,0,0,1,1,.17V145a10.93,10.93,0,0,1-3.81,8.36l-21.17,17.89L229,208.32l23.13-24.11a1.14,1.14,0,0,0-.8-2l-13.2.53,22-25.2a8.94,8.94,0,0,0,2.18-5.52l1.09-27.57,11.63,35.23-10.72,26.58-45.69,49Zm147.47-8.88c-.06-1-.11-1.77-.17-2.42l-.42-61.9-9.65,18.26L298.73,88.7,284.67,60.32l-23-11.26L265,57.79A88.18,88.18,0,0,1,269.43,78L250.69,41.6,227.93,26l2.82,9.85C236,54.09,246,105,229.64,121.46l-10.91,9.81-10.92-9.81c-16.33-16.5-6.35-67.37-1.11-85.61L209.52,26,186.76,41.6,168,78a89,89,0,0,1,4.44-20.22l3.33-8.73-23,11.26L138.72,88.7l-11.46,42.67-9.65-18.26-.42,61.9c-.06.65-.11,1.47-.17,2.42-.32,5-.9,14.22-3.76,20.11l-2.92,6,3.8,5.52c.15.23,15.41,22.7,17.15,43.94l.87,10.58h12.06c-.24.47-.43.81-.57,1L136,268.87l14.6,40.59,3.26,1.34,4.74,17.95,3.66,1.39.5,2.26,2.92,2.4c.09.11.24.26.43.47A153,153,0,0,0,184,351.88c1.21.93,2.41,1.93,3.41,2.79a132.72,132.72,0,0,0,17.15,12.89c4.86,4.07,14.08,12.83,14.28,21v0c.28-11.07,17.73-23.3,17.73-23.3l-.39.14a151.13,151.13,0,0,0,13.8-10.7c1-.85,2.19-1.85,3.41-2.79a153,153,0,0,0,17.94-16.61l.43-.47,2.92-2.4.5-2.26,3.66-1.39,4.74-17.95,3.25-1.34,14.6-40.59-7.66-4.21c-.14-.23-.33-.57-.57-1h12.06l.87-10.58c1.74-21.24,17-43.71,17.15-43.93l3.8-5.53-2.92-6C321.33,191.65,320.74,182.4,320.43,177.43Zm-3.2,27.49c-.16.24-16.51,24.22-18.42,47.51l-.31,3.82h-9.65l-4.09,6.34.73,1.77a20.52,20.52,0,0,0,3.17,5.69l.39.42,3.34,1.83L281,303.89l-3.62,1.5-4.7,17.81-3.82,1.44-.83,3.68-1.1.91a10.16,10.16,0,0,0-1,1A144.61,144.61,0,0,1,248.93,346c-1.36,1-2.64,2.12-3.72,3-15.58,13.34-23,16.14-26.55,16.14-5,0-13.91-5.43-26.43-16.14-1.08-.92-2.36-2-3.71-3a144.61,144.61,0,0,1-17.05-15.8,8.75,8.75,0,0,0-1-1l-1.09-.91-.83-3.68-3.82-1.44L160,305.39l-3.62-1.5L145.05,272.3l3.35-1.83.39-.42a20.52,20.52,0,0,0,3.17-5.69l.73-1.77-4.09-6.34H139l-.31-3.82c-1.91-23.29-18.26-47.27-18.43-47.51l-1.37-2,1.06-2.17c3.48-7.2,4.13-17.39,4.48-22.86.06-1,.11-1.76.17-2.37l.23-33.07,4.74,9,16.13-60.1,12.62-25.48,4.8-2.35c-1.81,7.28-3.71,18.47-2.34,30.07l1.41,12,30.32-58.92,4.72-3.24c-4.55,19.78-12.32,64.5,5,82.81h0c.17.17.32.36.48.53l8.22,7.38c3.81,4.2,7.46,9.57,7.59,14.8h0c.12-4.7,3.17-9.51,6.65-13.48l9.52-8.57.14-.13c.17-.17.32-.35.48-.52l0,0h0c17.33-18.3,9.55-63,5-82.82L245,46.63l30.32,58.92,1.41-12c1.37-11.6-.53-22.79-2.34-30.07l4.8,2.35L291.8,91.32l16.13,60.1,4.73-9,.23,32.76v.31c.06.61.11,1.42.17,2.37.35,5.47,1,15.66,4.48,22.86l1.06,2.17Z" transform="translate(-110.34 -26)" fill="#f2f2f3"/></svg>